<?xml version="1.0" encoding="UTF-8"?> <svg xmlns="http://www.w3.org/2000/svg" width="215" height="54" viewBox="0 0 215 54" fill="none"><g clip-path="url(#clip0)"><path d="M53.5998 0H35.7998V53.7H53.5998V0Z" fill="#0099CC"></path><path d="M17.8 53.7H0V31L17.8 53.7Z" fill="#003366"></path><path d="M17.8 22.3L0 0H17.8V22.3Z" fill="#FF6600"></path><path d="M82.3998 35.7L75.2998 24.7V35.7H71.7998V17.8H74.8998L81.9998 28.8V17.8H85.4998V35.7H82.3998Z" fill="#003366"></path><path d="M95.8998 35.9C92.1998 35.9 89.2998 33.4 89.2998 29.6V17.8H92.7998V29.5C92.7998 31.6 93.9998 32.8 95.8998 32.8C97.7998 32.8 98.9998 31.6 98.9998 29.5V17.8H102.5V29.6C102.5 33.4 99.5998 35.9 95.8998 35.9Z" fill="#003366"></path><path d="M117.1 33.9C115.8 35.2 114.3 35.9 112.3 35.9C110.3 35.9 108.7 35.2 107.4 33.9C105.6 32.1 105.6 29.8 105.6 26.8C105.6 23.8 105.5 21.5 107.4 19.7C108.7 18.4 110.2 17.7 112.3 17.7C114.3 17.7 115.9 18.4 117.1 19.7C118.9 21.5 118.9 23.8 118.9 26.8C118.9 29.8 118.9 32.1 117.1 33.9ZM114.5 21.7C114 21.1 113.2 20.7 112.3 20.7C111.3 20.7 110.5 21.1 110 21.7C109.3 22.5 109.1 23.3 109.1 26.7C109.1 30.1 109.3 31 110 31.7C110.5 32.3 111.3 32.7 112.3 32.7C113.3 32.7 114 32.3 114.5 31.7C115.2 30.9 115.4 30.1 115.4 26.7C115.4 23.3 115.2 22.5 114.5 21.7Z" fill="#003366"></path><path d="M128.6 35.7H126L120.1 17.8H123.7L127.3 29.5L130.9 17.8H134.6L128.6 35.7Z" fill="#003366"></path><path d="M147.2 33.9C145.9 35.2 144.4 35.9 142.4 35.9C140.4 35.9 138.8 35.2 137.5 33.9C135.7 32.1 135.7 29.8 135.7 26.8C135.7 23.8 135.6 21.5 137.5 19.7C138.8 18.4 140.3 17.7 142.4 17.7C144.4 17.7 146 18.4 147.2 19.7C149 21.5 149 23.8 149 26.8C149 29.8 149 32.1 147.2 33.9ZM144.6 21.7C144.1 21.1 143.3 20.7 142.4 20.7C141.4 20.7 140.6 21.1 140.1 21.7C139.4 22.5 139.2 23.3 139.2 26.7C139.2 30.1 139.4 31 140.1 31.7C140.6 32.3 141.4 32.7 142.4 32.7C143.4 32.7 144.1 32.3 144.6 31.7C145.3 30.9 145.5 30.1 145.5 26.7C145.5 23.3 145.3 22.5 144.6 21.7Z" fill="#003366"></path><path d="M152.899 35.7V17.8H154.799V35.7H152.899Z" fill="#003366"></path><path d="M173.5 35.7V22.1L168.6 32.9H167L162 22.1V35.7H160V17.8H161.9L167.7 30.5L173.4 17.8H175.3V35.7H173.5Z" fill="#003366"></path><path d="M190.999 35.7L189.599 31.6H181.799L180.399 35.7H178.399L184.999 17.8H186.599L193.199 35.7H190.999ZM185.699 20.5L182.299 30H188.999L185.699 20.5Z" fill="#003366"></path><path d="M196 35.7V17.8H197.9V35.7H196Z" fill="#003366"></path><path d="M203.1 35.7V17.8H214.2V19.5H205V25.8H212.9V27.5H205V34H214.2V35.7H203.1Z" fill="#003366"></path></g><defs><clipPath id="clip0"><rect width="214.2" height="53.7" fill="white"></rect></clipPath></defs></svg> 